<svg xmlns="http://www.w3.org/2000/svg" viewBox="0 0 512 512" width="512" height="512">
  <rect width="512" height="512" rx="96" fill="#C8102E"/>
  <g transform="translate(96, 156) scale(1.6)" fill="#fff">
    <!-- Corpo do carro (silhueta) -->
    <path d="M 30 80 Q 30 60 60 56 L 100 50 Q 110 30 140 30 L 160 30 Q 180 30 190 50 L 230 56 Q 250 60 250 80 L 250 100 L 30 100 Z"/>
    <!-- Rodas -->
    <circle cx="75" cy="105" r="22" fill="#0a0a0a"/>
    <circle cx="75" cy="105" r="10" fill="#fff"/>
    <circle cx="200" cy="105" r="22" fill="#0a0a0a"/>
    <circle cx="200" cy="105" r="10" fill="#fff"/>
    <!-- Vidros -->
    <path d="M 110 50 Q 120 32 140 32 L 160 32 Q 175 32 180 50 Z" fill="#1E40AF"/>
  </g>
  <!-- Texto Cel-Car -->
  <text x="256" y="430" font-family="Arial, Helvetica, sans-serif" font-size="72" font-weight="bold" text-anchor="middle" fill="#fff">Cel-Car</text>
</svg>
